# xmcd
#
# Track frame offsets: 
#        150
#        8559
#        14406
#        24661
#        31012
#        40912
#        49802
#        56263
#        66243
#        75312
#        82962
#        93413
#        97606
#        105369
#        112210
#        121884
#        133284
#        139177
#        151327
#        155838
#
# Disc length: 2215 seconds
#
# Revision: 0
# Processed by: cddbd v1.5.2PL0 Copyright (c) Steve Scherf et al.
# Submitted via: ExactAudioCopy v1.0b1
#
DISCID=f208a514
DTITLE=The Sons of the Pioneers - The Republic Years
DYEAR=2006
DGENRE=Country
TTITLE0=My Saddle Pals and I
TTITLE1=Silver Spurs, Purple Sage, Eyes of Blue
TTITLE2=The Everlasting Hills of Oklahoma
TTITLE3=Rainbow Over Texas
TTITLE4=My Adobe Hacienda
TTITLE5=Cowboy Country
TTITLE6=I'm an Old Cowhand (From the Rio Grande)
TTITLE7=Medley - When It's Springtime in the Rockies, Tumbling Tumblew
TTITLE7=eeds, Highways are Happy Ways
TTITLE8=Mexicali Rose
TTITLE9=Git Along Little Dogies (Whoopee Ti Yi Yo)
TTITLE10=Don't Fence Me In
TTITLE11=The Utah Trail
TTITLE12=The Cowboy Jubilee
TTITLE13=Ride 'Em Cowboy
TTITLE14=Lights of Old Santa Fe
TTITLE15=It's an Old Spanish Custom
TTITLE16=Ride, Ranger, Ride
TTITLE17=The Lonesome Cowboy Blues
TTITLE18=Red River Valley
TTITLE19=On the Old Spanish Trail
EXTD=
EXTT0=
EXTT1=
EXTT2=
EXTT3=
EXTT4=
EXTT5=
EXTT6=
EXTT7=
EXTT8=
EXTT9=
EXTT10=
EXTT11=
EXTT12=
EXTT13=
EXTT14=
EXTT15=
EXTT16=
EXTT17=
EXTT18=
EXTT19=
PLAYORDER=
